# xmcd
#
# Track frame offsets:
#	150
#	14690
#	26281
#	41854
#	55235
#	67196
#	80833
#	94003
#	109206
#	123517
#	136722
#	152964
#	166217
#	177284
#	192836
#	204811
#
# Disc length: 2868 seconds
#
# Revision: 0
# Processed by: cddbd v1.5.2PL0 Copyright (c) Steve Scherf et al.
# Submitted via: EasyCDDAExtractor 16.0.6.1
#
DISCID=db0b3210
DTITLE=Πουλόπουλος Γιάννης - Ενενήντα έξι μεγ. επιτυχίες-Γ. Πουλόπουλος 5
DYEAR=2010
DGENRE=Ποικίλη
TTITLE0=Πουλόπουλος Γιάννης - Πάμε για ύπνο Κατερίνα [Γ. Κατσαρός-Πυθαγόρας]
TTITLE1=Πουλόπουλος Γιάννης - Η Μυρσίνη βάζει τ' άσπρα [Μ. Πλέσσας-Λ. Παπαδόπο
TTITLE1=υλος]
TTITLE2=Πουλόπουλος Γιάννης - Σα μαγεμένο το μυαλό μου [Δ. Γκόγκος ή Μπαγιαντέ
TTITLE2=ρας]
TTITLE3=Πουλόπουλος Γιάννης - Μη μού θυμώνεις μάτια μου [Κ. Κωνσταντακόπουλος-
TTITLE3=Γ. Λογοθέτης]
TTITLE4=Πουλόπουλος Γιάννης - Έχω μιά βάρκα με πανιά [Σ. Κουγιουμτζής]
TTITLE5=Πουλόπουλος Γιάννης - Όσα δε βάνει ο λογισμός [Λ. Κόκοτος-Ά. Δασκαλόπο
TTITLE5=υλος]
TTITLE6=Πουλόπουλος Γιάννης - Ο ναύτης [Γ. Μητσάκης]
TTITLE7=Πουλόπουλος Γιάννης - Στράτα τη στράτα [Μ. Θεοδωράκης-Ν. Γκάτσος]
TTITLE8=Πουλόπουλος Γιάννης - Χαμένο Σαββατόβραδο [Χ. Λυμπερόπουλος-Ηρ. Παπασι
TTITLE8=δέρης]
TTITLE9=Πουλόπουλος Γιάννης - Μέσα στα παλιά βαγόνια [Γ. Κριμιζάκης-Δ. Ιατρόπο
TTITLE9=υλος]
TTITLE10=Πουλόπουλος Γιάννης - Αφού μού 'φυγες εσύ [Γ. Πουλόπουλος-Μ. Πουλοπού
TTITLE10=λου]
TTITLE11=Πουλόπουλος Γιάννης - Ανθή [Ν. Μαμαγκάκης-Βασ. Βασιλικός]
TTITLE12=Πουλόπουλος Γιάννης - Στον Πειραιά, στον Πειραιά [Γ. Κατσαρός-Πυθαγόρ
TTITLE12=ας]
TTITLE13=Πουλόπουλος Γιάννης - Στάλα, στάλα [Γ. Ζαμπέτας-Χαρ. Βασιλειάδης]
TTITLE14=Κλάδη Ελένη-Πουλόπουλος Γιάννης - Σ' αγαπώ, σ' αγαπώ [Γ. Κατσαρός-Πυθ
TTITLE14=αγόρας]
TTITLE15=Πουλόπουλος Γιάννης - Κράτα βρε Γιώργη [Μ. Πλέσσας-Ά. Δασκαλόπουλος]
EXTD=
EXTT0=
EXTT1=
EXTT2=
EXTT3=
EXTT4=
EXTT5=
EXTT6=
EXTT7=
EXTT8=
EXTT9=
EXTT10=
EXTT11=
EXTT12=
EXTT13=
EXTT14=
EXTT15=
PLAYORDER=
